<svg width="20" height="17" viewBox="0 0 20 17" fill="none" xmlns="http://www.w3.org/2000/svg">
<path d="M14.1538 1H2.38462C1.61991 1 1 1.63959 1 2.42857V11C1 11.789 1.61991 12.4286 2.38462 12.4286H14.1538C14.9185 12.4286 15.5385 11.789 15.5385 11V2.42857C15.5385 1.63959 14.9185 1 14.1538 1Z" stroke="#393E4D" stroke-width="1.5" stroke-linecap="round" stroke-linejoin="round"/>
<path d="M8.26924 8.857C9.4163 8.857 10.3462 7.89761 10.3462 6.71415C10.3462 5.53068 9.4163 4.57129 8.26924 4.57129C7.12219 4.57129 6.19232 5.53068 6.19232 6.71415C6.19232 7.89761 7.12219 8.857 8.26924 8.857Z" stroke="#393E4D" stroke-width="1.5" stroke-linecap="round" stroke-linejoin="round"/>
<path d="M5.15384 16H17.6154C17.9826 16 18.3348 15.8495 18.5944 15.5816C18.8541 15.3137 19 14.9503 19 14.5714V7.42859" stroke="#393E4D" stroke-width="1.5" stroke-linecap="round" stroke-linejoin="round"/>
</svg>
