<svg width="28" height="28" viewBox="0 0 28 28" fill="none" xmlns="http://www.w3.org/2000/svg">
<path d="M0 1.2C0 0.88174 0.126437 0.576515 0.351496 0.351472C0.576556 0.126428 0.881802 0 1.20008 0H2.09295C3.61305 0 4.52512 1.0224 5.04515 1.9728C5.39238 2.6064 5.64359 3.3408 5.84041 4.0064C5.89364 4.0022 5.94702 4.00006 6.00042 4H25.9986C27.3267 4 28.2868 5.2704 27.922 6.5488L24.9969 16.8032C24.7347 17.723 24.1799 18.5322 23.4165 19.1085C22.6531 19.6847 21.7227 19.9966 20.7662 19.9968H11.2488C10.2847 19.9968 9.3473 19.6803 8.58064 19.0958C7.81398 18.5113 7.26051 17.6912 7.00529 16.7616L5.7892 12.3264L3.77306 5.5296L3.77146 5.5168C3.52185 4.6096 3.28823 3.76 2.93941 3.1264C2.60498 2.5104 2.33616 2.4 2.09455 2.4H1.20008C0.881802 2.4 0.576556 2.27357 0.351496 2.04853C0.126437 1.82348 0 1.51826 0 1.2ZM8.11737 11.744L9.31905 16.1264C9.55907 16.9936 10.3479 17.5968 11.2488 17.5968H20.7662C21.201 17.5968 21.6239 17.4551 21.971 17.1933C22.318 16.9314 22.5703 16.5636 22.6896 16.1456L25.469 6.4H6.53646L8.09497 11.6592L8.11737 11.744ZM13.601 24.8C13.601 25.6487 13.2638 26.4626 12.6636 27.0627C12.0635 27.6629 11.2495 28 10.4007 28C9.55197 28 8.73799 27.6629 8.13783 27.0627C7.53767 26.4626 7.2005 25.6487 7.2005 24.8C7.2005 23.9513 7.53767 23.1374 8.13783 22.5373C8.73799 21.9371 9.55197 21.6 10.4007 21.6C11.2495 21.6 12.0635 21.9371 12.6636 22.5373C13.2638 23.1374 13.601 23.9513 13.601 24.8ZM11.2008 24.8C11.2008 24.5878 11.1165 24.3843 10.9665 24.2343C10.8164 24.0843 10.6129 24 10.4007 24C10.1885 24 9.98504 24.0843 9.835 24.2343C9.68496 24.3843 9.60067 24.5878 9.60067 24.8C9.60067 25.0122 9.68496 25.2157 9.835 25.3657C9.98504 25.5157 10.1885 25.6 10.4007 25.6C10.6129 25.6 10.8164 25.5157 10.9665 25.3657C11.1165 25.2157 11.2008 25.0122 11.2008 24.8ZM24.8017 24.8C24.8017 25.6487 24.4646 26.4626 23.8644 27.0627C23.2642 27.6629 22.4503 28 21.6015 28C20.7528 28 19.9388 27.6629 19.3386 27.0627C18.7385 26.4626 18.4013 25.6487 18.4013 24.8C18.4013 23.9513 18.7385 23.1374 19.3386 22.5373C19.9388 21.9371 20.7528 21.6 21.6015 21.6C22.4503 21.6 23.2642 21.9371 23.8644 22.5373C24.4646 23.1374 24.8017 23.9513 24.8017 24.8ZM22.4016 24.8C22.4016 24.5878 22.3173 24.3843 22.1672 24.2343C22.0172 24.0843 21.8137 24 21.6015 24C21.3893 24 21.1858 24.0843 21.0358 24.2343C20.8857 24.3843 20.8015 24.5878 20.8015 24.8C20.8015 25.0122 20.8857 25.2157 21.0358 25.3657C21.1858 25.5157 21.3893 25.6 21.6015 25.6C21.8137 25.6 22.0172 25.5157 22.1672 25.3657C22.3173 25.2157 22.4016 25.0122 22.4016 24.8Z" fill="#DB5743"/>
</svg>
