<svg width="24" height="24" viewBox="0 0 24 24" fill="none" xmlns="http://www.w3.org/2000/svg">
<circle cx="12" cy="12" r="12" fill="white"/>
<path d="M4 5.68571C4 5.50385 4.07225 5.32944 4.20086 5.20084C4.32946 5.07224 4.50389 5 4.68576 5H5.19597C6.0646 5 6.58578 5.58423 6.88294 6.12731C7.08136 6.48937 7.22491 6.90903 7.33738 7.28937C7.3678 7.28697 7.3983 7.28575 7.42881 7.28571H18.8564C19.6153 7.28571 20.1639 8.01166 19.9554 8.74217L18.284 14.6018C18.1341 15.1274 17.8171 15.5899 17.3809 15.9191C16.9446 16.2484 16.413 16.4266 15.8664 16.4267H10.4279C9.87698 16.4268 9.34131 16.2459 8.90322 15.9119C8.46513 15.5779 8.14886 15.1093 8.00302 14.5781L7.30812 12.0437L6.15604 8.15977L6.15512 8.15246C6.01248 7.63406 5.87899 7.14857 5.67966 6.78651C5.48856 6.43451 5.33495 6.37143 5.19688 6.37143H4.68576C4.50389 6.37143 4.32946 6.29918 4.20086 6.17059C4.07225 6.04199 4 5.86758 4 5.68571ZM8.6385 11.7109L9.32517 14.2151C9.46232 14.7106 9.9131 15.0553 10.4279 15.0553H15.8664C16.1149 15.0553 16.3565 14.9744 16.5548 14.8247C16.7532 14.6751 16.8973 14.4649 16.9655 14.2261L18.5537 8.65714H7.73512L8.6257 11.6624L8.6385 11.7109ZM11.772 19.1714C11.772 19.6564 11.5793 20.1215 11.2364 20.4644C10.8934 20.8073 10.4283 21 9.94327 21C9.45827 21 8.99313 20.8073 8.65019 20.4644C8.30724 20.1215 8.11457 19.6564 8.11457 19.1714C8.11457 18.6865 8.30724 18.2214 8.65019 17.8784C8.99313 17.5355 9.45827 17.3429 9.94327 17.3429C10.4283 17.3429 10.8934 17.5355 11.2364 17.8784C11.5793 18.2214 11.772 18.6865 11.772 19.1714ZM10.4004 19.1714C10.4004 19.0502 10.3523 18.9339 10.2665 18.8482C10.1808 18.7624 10.0645 18.7143 9.94327 18.7143C9.82202 18.7143 9.70574 18.7624 9.62 18.8482C9.53426 18.9339 9.4861 19.0502 9.4861 19.1714C9.4861 19.2927 9.53426 19.4089 9.62 19.4947C9.70574 19.5804 9.82202 19.6286 9.94327 19.6286C10.0645 19.6286 10.1808 19.5804 10.2665 19.4947C10.3523 19.4089 10.4004 19.2927 10.4004 19.1714ZM18.1724 19.1714C18.1724 19.6564 17.9798 20.1215 17.6368 20.4644C17.2939 20.8073 16.8287 21 16.3437 21C15.8587 21 15.3936 20.8073 15.0506 20.4644C14.7077 20.1215 14.515 19.6564 14.515 19.1714C14.515 18.6865 14.7077 18.2214 15.0506 17.8784C15.3936 17.5355 15.8587 17.3429 16.3437 17.3429C16.8287 17.3429 17.2939 17.5355 17.6368 17.8784C17.9798 18.2214 18.1724 18.6865 18.1724 19.1714ZM16.8009 19.1714C16.8009 19.0502 16.7527 18.9339 16.667 18.8482C16.5813 18.7624 16.465 18.7143 16.3437 18.7143C16.2225 18.7143 16.1062 18.7624 16.0204 18.8482C15.9347 18.9339 15.8865 19.0502 15.8865 19.1714C15.8865 19.2927 15.9347 19.4089 16.0204 19.4947C16.1062 19.5804 16.2225 19.6286 16.3437 19.6286C16.465 19.6286 16.5813 19.5804 16.667 19.4947C16.7527 19.4089 16.8009 19.2927 16.8009 19.1714Z" fill="#DB5743"/>
<path fill-rule="evenodd" clip-rule="evenodd" d="M10.25 11.9999C10.25 11.5857 10.5858 11.2499 11 11.2499H15C15.4142 11.2499 15.75 11.5857 15.75 11.9999C15.75 12.4142 15.4142 12.7499 15 12.7499H11C10.5858 12.7499 10.25 12.4142 10.25 11.9999Z" fill="#DB5743"/>
<path fill-rule="evenodd" clip-rule="evenodd" d="M13 14.7499C12.5858 14.7499 12.25 14.4142 12.25 13.9999V9.99994C12.25 9.58573 12.5858 9.24994 13 9.24994C13.4142 9.24994 13.75 9.58573 13.75 9.99994V13.9999C13.75 14.4142 13.4142 14.7499 13 14.7499Z" fill="#DB5743"/>
</svg>