<svg width="48" height="48" viewBox="0 0 48 48" fill="none" xmlns="http://www.w3.org/2000/svg">
<circle cx="24" cy="24" r="24" fill="white"/>
<path d="M10 11.2C10 10.8817 10.1264 10.5765 10.3515 10.3515C10.5766 10.1264 10.8818 10 11.2001 10H12.0929C13.6131 10 14.5251 11.0224 15.0452 11.9728C15.3924 12.6064 15.6436 13.3408 15.8404 14.0064C15.8936 14.0022 15.947 14.0001 16.0004 14H35.9986C37.3267 14 38.2868 15.2704 37.922 16.5488L34.9969 26.8032C34.7347 27.723 34.1799 28.5322 33.4165 29.1085C32.6531 29.6847 31.7227 29.9966 30.7662 29.9968H21.2488C20.2847 29.9968 19.3473 29.6803 18.5806 29.0958C17.814 28.5113 17.2605 27.6912 17.0053 26.7616L15.7892 22.3264L13.7731 15.5296L13.7715 15.5168C13.5218 14.6096 13.2882 13.76 12.9394 13.1264C12.605 12.5104 12.3362 12.4 12.0945 12.4H11.2001C10.8818 12.4 10.5766 12.2736 10.3515 12.0485C10.1264 11.8235 10 11.5183 10 11.2ZM18.1174 21.744L19.3191 26.1264C19.5591 26.9936 20.3479 27.5968 21.2488 27.5968H30.7662C31.201 27.5968 31.6239 27.4551 31.971 27.1933C32.318 26.9314 32.5703 26.5636 32.6896 26.1456L35.469 16.4H16.5365L18.095 21.6592L18.1174 21.744ZM23.601 34.8C23.601 35.6487 23.2638 36.4626 22.6636 37.0627C22.0635 37.6629 21.2495 38 20.4007 38C19.552 38 18.738 37.6629 18.1378 37.0627C17.5377 36.4626 17.2005 35.6487 17.2005 34.8C17.2005 33.9513 17.5377 33.1374 18.1378 32.5373C18.738 31.9371 19.552 31.6 20.4007 31.6C21.2495 31.6 22.0635 31.9371 22.6636 32.5373C23.2638 33.1374 23.601 33.9513 23.601 34.8ZM21.2008 34.8C21.2008 34.5878 21.1165 34.3843 20.9665 34.2343C20.8164 34.0843 20.6129 34 20.4007 34C20.1885 34 19.985 34.0843 19.835 34.2343C19.685 34.3843 19.6007 34.5878 19.6007 34.8C19.6007 35.0122 19.685 35.2157 19.835 35.3657C19.985 35.5157 20.1885 35.6 20.4007 35.6C20.6129 35.6 20.8164 35.5157 20.9665 35.3657C21.1165 35.2157 21.2008 35.0122 21.2008 34.8ZM34.8017 34.8C34.8017 35.6487 34.4646 36.4626 33.8644 37.0627C33.2642 37.6629 32.4503 38 31.6015 38C30.7528 38 29.9388 37.6629 29.3386 37.0627C28.7385 36.4626 28.4013 35.6487 28.4013 34.8C28.4013 33.9513 28.7385 33.1374 29.3386 32.5373C29.9388 31.9371 30.7528 31.6 31.6015 31.6C32.4503 31.6 33.2642 31.9371 33.8644 32.5373C34.4646 33.1374 34.8017 33.9513 34.8017 34.8ZM32.4016 34.8C32.4016 34.5878 32.3173 34.3843 32.1672 34.2343C32.0172 34.0843 31.8137 34 31.6015 34C31.3893 34 31.1858 34.0843 31.0358 34.2343C30.8857 34.3843 30.8015 34.5878 30.8015 34.8C30.8015 35.0122 30.8857 35.2157 31.0358 35.3657C31.1858 35.5157 31.3893 35.6 31.6015 35.6C31.8137 35.6 32.0172 35.5157 32.1672 35.3657C32.3173 35.2157 32.4016 35.0122 32.4016 34.8Z" fill="#DB5743"/>
</svg>
