<svg width="48" height="48" viewBox="0 0 48 48" fill="none" xmlns="http://www.w3.org/2000/svg">
<circle cx="24" cy="24" r="24" fill="white"/>
<path d="M37.8159 35.5359C36.0385 32.3023 33.2632 29.7828 29.9366 28.3829C31.5909 27.0968 32.8129 25.3038 33.4294 23.2578C34.046 21.2119 34.0259 19.0167 33.372 16.9832C32.7181 14.9497 31.4635 13.181 29.786 11.9277C28.1085 10.6744 26.0931 10 24.0253 10C21.9574 10 19.942 10.6744 18.2645 11.9277C16.587 13.181 15.3324 14.9497 14.6785 16.9832C14.0246 19.0167 14.0045 21.2119 14.6211 23.2578C15.2377 25.3038 16.4596 27.0968 18.1139 28.3829C14.7873 29.7828 12.012 32.3023 10.2346 35.5359C10.1245 35.7194 10.0511 35.9241 10.0188 36.1376C9.98647 36.3512 9.99592 36.5693 10.0466 36.779C10.0972 36.9887 10.188 37.1857 10.3135 37.3583C10.4391 37.5309 10.5968 37.6756 10.7774 37.7837C10.958 37.8919 11.1577 37.9613 11.3646 37.9878C11.5716 38.0143 11.7816 37.9975 11.9821 37.9382C12.1827 37.8789 12.3697 37.7785 12.532 37.6428C12.6944 37.5071 12.8288 37.339 12.9272 37.1484C15.2762 32.9397 19.4245 30.4295 24.0253 30.4295C28.626 30.4295 32.7744 32.941 35.1234 37.1484C35.3366 37.5039 35.6749 37.7594 36.0667 37.8611C36.4584 37.9627 36.8729 37.9025 37.2226 37.6931C37.5723 37.4836 37.8297 37.1415 37.9404 36.7389C38.0511 36.3364 38.0065 35.9049 37.8159 35.5359ZM17.2842 20.2168C17.2842 18.8347 17.6796 17.4837 18.4203 16.3346C19.161 15.1855 20.2138 14.2899 21.4456 13.761C22.6773 13.2321 24.0327 13.0938 25.3404 13.3634C26.648 13.633 27.8492 14.2985 28.7919 15.2757C29.7347 16.253 30.3767 17.4981 30.6368 18.8535C30.8969 20.209 30.7634 21.614 30.2532 22.8908C29.743 24.1677 28.879 25.259 27.7704 26.0268C26.6618 26.7946 25.3585 27.2044 24.0253 27.2044C22.2381 27.2023 20.5246 26.4654 19.2609 25.1554C17.9971 23.8455 17.2863 22.0694 17.2842 20.2168Z" fill="#DB5743"/>
</svg>
