<svg width="28" height="28" viewBox="0 0 28 28" fill="none" xmlns="http://www.w3.org/2000/svg">
<path d="M27.8159 25.5359C26.0385 22.3023 23.2632 19.7828 19.9366 18.3829C21.5909 17.0968 22.8129 15.3038 23.4294 13.2578C24.046 11.2119 24.0259 9.01666 23.372 6.98318C22.7181 4.94971 21.4635 3.18104 19.786 1.92773C18.1085 0.674422 16.0931 0 14.0253 0C11.9574 0 9.94203 0.674422 8.26452 1.92773C6.58701 3.18104 5.33245 4.94971 4.67854 6.98318C4.02464 9.01666 4.00454 11.2119 4.6211 13.2578C5.23766 15.3038 6.45962 17.0968 8.11388 18.3829C4.78733 19.7828 2.01199 22.3023 0.234627 25.5359C0.124495 25.7194 0.0510929 25.9241 0.0187838 26.1376C-0.0135253 26.3512 -0.00408183 26.5693 0.0465531 26.779C0.097188 26.9887 0.187981 27.1857 0.313533 27.3583C0.439086 27.5309 0.596835 27.6756 0.777404 27.7837C0.957972 27.8919 1.15767 27.9613 1.36463 27.9878C1.5716 28.0143 1.78159 27.9975 1.98214 27.9382C2.18269 27.8789 2.36969 27.7785 2.53204 27.6428C2.69438 27.5071 2.82875 27.339 2.92716 27.1484C5.27616 22.9397 9.4245 20.4295 14.0253 20.4295C18.626 20.4295 22.7744 22.941 25.1234 27.1484C25.3366 27.5039 25.6749 27.7594 26.0667 27.8611C26.4584 27.9627 26.8729 27.9025 27.2226 27.6931C27.5723 27.4836 27.8297 27.1415 27.9404 26.7389C28.0511 26.3364 28.0065 25.9049 27.8159 25.5359ZM7.28421 10.2168C7.28421 8.83474 7.67957 7.48374 8.42028 6.33463C9.161 5.18551 10.2138 4.28989 11.4456 3.76101C12.6773 3.23213 14.0327 3.09375 15.3404 3.36337C16.648 3.63299 17.8492 4.2985 18.7919 5.27574C19.7347 6.25299 20.3767 7.49807 20.6368 8.85354C20.8969 10.209 20.7634 11.614 20.2532 12.8908C19.743 14.1677 18.879 15.259 17.7704 16.0268C16.6618 16.7946 15.3585 17.2044 14.0253 17.2044C12.2381 17.2023 10.5246 16.4654 9.26089 15.1554C7.99715 13.8455 7.28627 12.0694 7.28421 10.2168Z" fill="#DB5743"/>
</svg>
