<svg width="20" height="14" viewBox="0 0 20 14" fill="none" xmlns="http://www.w3.org/2000/svg">
<path d="M6.72731 13C7.1613 13 7.57751 12.8055 7.88439 12.4593C8.19127 12.113 8.36367 11.6435 8.36367 11.1538C8.36367 10.6642 8.19127 10.1946 7.88439 9.84836C7.57751 9.50213 7.1613 9.30762 6.72731 9.30762C6.29332 9.30762 5.8771 9.50213 5.57022 9.84836C5.26334 10.1946 5.09094 10.6642 5.09094 11.1538C5.09094 11.6435 5.26334 12.113 5.57022 12.4593C5.8771 12.8055 6.29332 13 6.72731 13ZM14.9091 13C15.3431 13 15.7593 12.8055 16.0662 12.4593C16.3731 12.113 16.5455 11.6435 16.5455 11.1538C16.5455 10.6642 16.3731 10.1946 16.0662 9.84836C15.7593 9.50213 15.3431 9.30762 14.9091 9.30762C14.4751 9.30762 14.0589 9.50213 13.752 9.84836C13.4452 10.1946 13.2728 10.6642 13.2728 11.1538C13.2728 11.6435 13.4452 12.113 13.752 12.4593C14.0589 12.8055 14.4751 13 14.9091 13Z" stroke="#393E4D" stroke-width="1.5" stroke-miterlimit="1.5" stroke-linecap="round" stroke-linejoin="round"/>
<path d="M8.40454 11.1541H12.4545V1.55386C12.4545 1.40697 12.4028 1.26609 12.3108 1.16222C12.2187 1.05835 12.0938 1 11.9636 1H1M4.80454 11.1541H3.12727C3.06281 11.1541 2.99897 11.1398 2.93941 11.1119C2.87985 11.0841 2.82573 11.0433 2.78015 10.9919C2.73456 10.9404 2.6984 10.8794 2.67373 10.8122C2.64906 10.745 2.63636 10.673 2.63636 10.6002V6.07704" stroke="#393E4D" stroke-width="1.5" stroke-linecap="round"/>
<path d="M1.81821 3.76904H5.09093" stroke="#393E4D" stroke-width="1.5" stroke-linecap="round" stroke-linejoin="round"/>
<path d="M12.4546 3.76904H17.0446C17.1395 3.76907 17.2323 3.80012 17.3119 3.85845C17.3915 3.91677 17.4544 3.99986 17.493 4.09767L18.9575 7.8159C18.9854 7.88651 18.9999 7.96292 19 8.04022V10.6C19 10.6727 18.9873 10.7447 18.9627 10.8119C18.938 10.8791 18.9018 10.9402 18.8563 10.9916C18.8107 11.043 18.7566 11.0838 18.697 11.1117C18.6374 11.1395 18.5736 11.1538 18.5091 11.1538H16.9546M12.4546 11.1538H13.2728" stroke="#393E4D" stroke-width="1.5" stroke-linecap="round"/>
</svg>
