<svg width="20" height="16" viewBox="0 0 20 16" fill="none" xmlns="http://www.w3.org/2000/svg">
<path d="M7.3 7.125C8.29411 7.125 9.1 6.3415 9.1 5.375C9.1 4.4085 8.29411 3.625 7.3 3.625C6.30589 3.625 5.5 4.4085 5.5 5.375C5.5 6.3415 6.30589 7.125 7.3 7.125Z" stroke="#393E4D" stroke-width="1.5"/>
<path d="M10.9 10.625C10.9 11.5919 10.9 12.375 7.30001 12.375C3.70001 12.375 3.70001 11.5919 3.70001 10.625C3.70001 9.65812 5.31101 8.875 7.30001 8.875C9.28901 8.875 10.9 9.65812 10.9 10.625Z" stroke="#393E4D" stroke-width="1.5"/>
<path d="M19 8C19 11.2996 19 12.9499 17.9452 13.9745C16.8913 15 15.1939 15 11.8 15H8.2C4.8061 15 3.1087 15 2.0548 13.9745C1 12.9499 1 11.2996 1 8C1 4.70038 1 3.05012 2.0548 2.0255C3.1087 1 4.8061 1 8.2 1H11.8C15.1939 1 16.8913 1 17.9452 2.0255C18.3682 2.43675 18.6211 2.94775 18.7732 3.625M16.3 8H12.7M16.3 5.375H11.8M16.3 10.625H13.6" stroke="#393E4D" stroke-width="1.5" stroke-linecap="round"/>
</svg>
