<svg width="10" height="10" viewBox="0 0 10 10" fill="none" xmlns="http://www.w3.org/2000/svg">
<path d="M8.62681 2.19999C8.8636 2.58319 9 3.03438 9 3.51718C9 4.90756 7.86802 6.03475 6.47206 6.03475C6.21766 6.03475 5.63767 5.97635 5.35568 5.74196L5.00289 6.09315C4.7089 6.38595 4.94409 6.38595 5.06169 6.61995C5.06169 6.61995 5.35568 7.02994 5.06169 7.43994C4.88529 7.67394 4.3913 8.00153 3.82731 7.43994L3.70972 7.55674C3.70972 7.55674 4.06211 7.96673 3.76852 8.37673C3.59212 8.61073 3.12173 8.84473 2.71014 8.43513L2.29895 8.84473C2.01656 9.12592 1.67176 8.96193 1.53497 8.84473L1.18177 8.49353C0.852581 8.16553 1.04458 7.81034 1.18177 7.67354L4.23851 4.62957C4.23851 4.62957 3.94451 4.16157 3.94451 3.51758C3.94451 2.12719 5.07649 1 6.47246 1C6.80005 1 7.11284 1.062 7.40004 1.1748" stroke="#DB5743" stroke-linecap="round" stroke-linejoin="round"/>
<path d="M7.35401 3.51755C7.35348 3.75087 7.26032 3.97443 7.095 4.13908C6.92969 4.30372 6.70575 4.39597 6.47243 4.39555C6.35687 4.39581 6.24239 4.37331 6.13553 4.32933C6.02866 4.28535 5.93151 4.22075 5.84961 4.13922C5.76771 4.05769 5.70267 3.96083 5.6582 3.85416C5.61374 3.7475 5.59072 3.63312 5.59045 3.51755C5.59066 3.40196 5.61365 3.28754 5.65809 3.18082C5.70253 3.07411 5.76756 2.9772 5.84947 2.89563C5.93137 2.81406 6.02855 2.74943 6.13544 2.70542C6.24233 2.66141 6.35684 2.6389 6.47243 2.63916C6.58799 2.63895 6.70247 2.66151 6.80931 2.70554C6.91615 2.74956 7.01328 2.81421 7.09514 2.89577C7.17701 2.97734 7.242 3.07423 7.28642 3.18092C7.33084 3.2876 7.3538 3.40199 7.35401 3.51755Z" stroke="#DB5743"/>
</svg>
