<svg width="20" height="20" viewBox="0 0 20 20" fill="none" xmlns="http://www.w3.org/2000/svg">
<path d="M18.1603 3.69997C18.6931 4.56217 19 5.57736 19 6.66365C19 9.79202 16.4531 12.3282 13.3121 12.3282C12.7397 12.3282 11.4348 12.1968 10.8003 11.6694L10.0065 12.4596C9.34501 13.1184 9.8742 13.1184 10.1388 13.6449C10.1388 13.6449 10.8003 14.5674 10.1388 15.4899C9.74191 16.0164 8.63043 16.7535 7.36146 15.4899L7.09686 15.7527C7.09686 15.7527 7.88975 16.6752 7.22916 17.5976C6.83227 18.1241 5.77389 18.6506 4.84781 17.729L3.92264 18.6506C3.28725 19.2833 2.51147 18.9143 2.20367 18.6506L1.40899 17.8604C0.668308 17.1224 1.1003 16.3233 1.40899 16.0155L8.28664 9.16652C8.28664 9.16652 7.62515 8.11353 7.62515 6.66455C7.62515 3.53618 10.1721 1 13.313 1C14.0501 1 14.7539 1.1395 15.4001 1.3933" stroke="#393E4D" stroke-width="1.5" stroke-linecap="round" stroke-linejoin="round"/>
<path d="M15.2965 6.66437C15.2953 7.18934 15.0857 7.69235 14.7137 8.0628C14.3418 8.43325 13.8379 8.64081 13.3129 8.63986C13.0529 8.64045 12.7954 8.58982 12.5549 8.49086C12.3145 8.39191 12.0959 8.24656 11.9116 8.06312C11.7273 7.87968 11.581 7.66174 11.4809 7.42174C11.3809 7.18174 11.3291 6.92439 11.3285 6.66437C11.329 6.40428 11.3807 6.14683 11.4807 5.90673C11.5807 5.66663 11.727 5.44859 11.9113 5.26505C12.0956 5.08152 12.3142 4.93609 12.5547 4.83707C12.7952 4.73806 13.0529 4.6874 13.3129 4.68799C13.573 4.68752 13.8305 4.73827 14.0709 4.83733C14.3113 4.9364 14.5299 5.08185 14.714 5.26537C14.8982 5.44889 15.0445 5.6669 15.1444 5.90694C15.2443 6.14698 15.296 6.40436 15.2965 6.66437Z" stroke="#393E4D" stroke-width="1.5"/>
</svg>
