<svg width="20" height="20" viewBox="0 0 20 20" fill="none" xmlns="http://www.w3.org/2000/svg">
<path d="M10.4985 18.9071C10.1777 19.031 9.82232 19.031 9.50154 18.9071C6.99634 17.9246 4.84525 16.2099 3.32876 13.9865C1.81227 11.7631 1.00074 9.13428 1 6.44277V2.38493C1 2.01762 1.14588 1.66536 1.40554 1.40564C1.66521 1.14591 2.01739 1 2.38462 1H17.6154C17.9826 1 18.3348 1.14591 18.5945 1.40564C18.8541 1.66536 19 2.01762 19 2.38493V6.42892C19.002 9.12279 18.1918 11.7547 16.6751 13.9808C15.1585 16.2069 13.0059 17.9238 10.4985 18.9071Z" stroke="#393E4D" stroke-width="1.5" stroke-linecap="round" stroke-linejoin="round"/>
<path d="M12.0769 7.92444H7.92307C7.15837 7.92444 6.53845 8.54449 6.53845 9.30937V12.0792C6.53845 12.8441 7.15837 13.4642 7.92307 13.4642H12.0769C12.8416 13.4642 13.4615 12.8441 13.4615 12.0792V9.30937C13.4615 8.54449 12.8416 7.92444 12.0769 7.92444Z" stroke="#393E4D" stroke-width="1.5" stroke-linecap="round" stroke-linejoin="round"/>
<path d="M12.0769 7.92473V6.5398C12.0769 6.26699 12.0232 5.99685 11.9188 5.74481C11.8144 5.49277 11.6614 5.26376 11.4686 5.07086C11.2757 4.87795 11.0468 4.72493 10.7948 4.62053C10.5428 4.51614 10.2727 4.4624 9.99998 4.4624C9.72723 4.4624 9.45716 4.51614 9.20518 4.62053C8.95319 4.72493 8.72423 4.87795 8.53137 5.07086C8.33851 5.26376 8.18553 5.49277 8.08115 5.74481C7.97678 5.99685 7.92306 6.26699 7.92306 6.5398V7.92473" stroke="#393E4D" stroke-width="1.5" stroke-linecap="round" stroke-linejoin="round"/>
</svg>
