<svg width="90" height="40" viewBox="0 0 147 66" fill="none" xmlns="http://www.w3.org/2000/svg">
  <path d="M1.8 33.03h8.4c2.3 0 4.14.61 5.52 1.83 1.4 1.22 2.1 2.89 2.1 5.01 0 2.2-.69 3.88-2.07 5.04-1.38 1.14-3.24 1.71-5.58 1.71H5.61V54H1.8V33.03Zm7.92 10.44c2.86 0 4.29-1.2 4.29-3.6 0-2.46-1.43-3.69-4.29-3.69H5.61v7.29h4.11Zm16.967 10.98c-2.68 0-4.8-.67-6.36-2.01-1.56-1.34-2.34-3.21-2.34-5.61 0-2.36.69-4.23 2.07-5.61s3.35-2.07 5.91-2.07c1.68 0 3.11.32 4.29.96 1.2.64 2.1 1.52 2.7 2.64.6 1.1.9 2.36.9 3.78v1.74h-12.27c.26 2.14 2.12 3.21 5.58 3.21.92 0 1.86-.08 2.82-.24.96-.16 1.8-.38 2.52-.66v2.91c-.68.28-1.56.51-2.64.69-1.06.18-2.12.27-3.18.27Zm3.6-8.76c-.04-1.14-.45-2.02-1.23-2.64-.76-.62-1.81-.93-3.15-.93-1.32 0-2.36.32-3.12.96-.76.64-1.16 1.51-1.2 2.61h8.7Zm11.861 8.76c-1.72 0-3.13-.45-4.23-1.35-1.1-.92-1.65-2.15-1.65-3.69 0-1.6.52-2.85 1.56-3.75 1.04-.9 2.5-1.35 4.38-1.35 1.82 0 3.39.37 4.71 1.11v-.39c0-1.02-.32-1.76-.96-2.22-.62-.46-1.63-.69-3.03-.69-.88 0-1.75.09-2.61.27-.86.16-1.62.39-2.28.69v-2.97c.6-.28 1.4-.51 2.4-.69 1.02-.18 2-.27 2.94-.27 2.5 0 4.35.54 5.55 1.62 1.2 1.06 1.8 2.54 1.8 4.44V54h-3.57v-1.41c-.62.6-1.33 1.06-2.13 1.38-.78.32-1.74.48-2.88.48Zm.93-2.76c.84 0 1.6-.16 2.28-.48.68-.34 1.2-.8 1.56-1.38v-1.59c-1.1-.78-2.36-1.17-3.78-1.17-2.02 0-3.03.78-3.03 2.34 0 .76.25 1.33.75 1.71.52.38 1.26.57 2.22.57Zm11.105-19.86h3.78v14.1l5.73-6.33h4.44l-6.42 7.05 7.14 7.35h-4.44l-6.45-6.66V54h-3.78V31.83Zm17.666 1.2h8.4c2.3 0 4.14.61 5.52 1.83 1.4 1.22 2.1 2.89 2.1 5.01 0 2.2-.69 3.88-2.07 5.04-1.38 1.14-3.24 1.71-5.58 1.71h-4.56V54h-3.81V33.03Zm7.92 10.44c2.86 0 4.29-1.2 4.29-3.6 0-2.46-1.43-3.69-4.29-3.69h-4.11v7.29h4.11Zm15.093 10.98c-1.94 0-3.39-.52-4.35-1.56-.96-1.06-1.44-2.46-1.44-4.2V39.6h3.78v8.73c0 2.1.98 3.15 2.94 3.15.86 0 1.67-.2 2.43-.6.76-.42 1.4-1.04 1.92-1.86V39.6h3.78V54h-3.66v-1.95c-.68.82-1.49 1.43-2.43 1.83-.94.38-1.93.57-2.97.57Zm12.67-22.62h3.78V54h-3.78V31.83Zm12.993 22.62c-1.04 0-2.15-.12-3.33-.36-1.18-.24-2.1-.57-2.76-.99v-3.21c.78.48 1.71.87 2.79 1.17 1.08.28 2.1.42 3.06.42s1.66-.08 2.1-.24c.44-.18.66-.5.66-.96 0-.36-.12-.65-.36-.87-.22-.24-.59-.45-1.11-.63-.5-.2-1.28-.44-2.34-.72-1.2-.34-2.15-.69-2.85-1.05-.68-.36-1.2-.81-1.56-1.35-.34-.56-.51-1.28-.51-2.16 0-1.44.57-2.52 1.71-3.24 1.14-.74 2.68-1.11 4.62-1.11 1 0 1.99.1 2.97.3 1 .18 1.78.44 2.34.78v3.09c-.6-.36-1.33-.65-2.19-.87-.86-.22-1.74-.33-2.64-.33-.98 0-1.72.1-2.22.3-.5.18-.75.54-.75 1.08 0 .36.13.65.39.87.28.2.64.38 1.08.54.44.14 1.24.36 2.4.66 1.24.34 2.21.71 2.91 1.11.7.4 1.2.88 1.5 1.44.3.56.45 1.26.45 2.1 0 1.28-.55 2.31-1.65 3.09-1.08.76-2.65 1.14-4.71 1.14Zm17.461 0c-2.68 0-4.8-.67-6.36-2.01-1.56-1.34-2.34-3.21-2.34-5.61 0-2.36.69-4.23 2.07-5.61s3.35-2.07 5.91-2.07c1.68 0 3.11.32 4.29.96 1.2.64 2.1 1.52 2.7 2.64.6 1.1.9 2.36.9 3.78v1.74h-12.27c.26 2.14 2.12 3.21 5.58 3.21.92 0 1.86-.08 2.82-.24.96-.16 1.8-.38 2.52-.66v2.91c-.68.28-1.56.51-2.64.69-1.06.18-2.12.27-3.18.27Zm3.6-8.76c-.04-1.14-.45-2.02-1.23-2.64-.76-.62-1.81-.93-3.15-.93-1.32 0-2.36.32-3.12.96-.76.64-1.16 1.51-1.2 2.61h8.7Z" fill="#fff"/>
  <path d="M53 19.727h6.853a.5.5 0 0 0 .464-.313l3.511-8.711a.5.5 0 0 1 .908-.042l4.355 8.44a.5.5 0 0 0 .917-.068L74.91 4.65c.162-.476.845-.442.96.047l4.738 20.206a.5.5 0 0 0 .898.17l3.255-4.712a.5.5 0 0 1 .411-.216H93" stroke="#DB4C43" stroke-width="3" stroke-linecap="round"/>
</svg>
