<svg width="22" height="22" viewBox="0 0 22 22" fill="none" xmlns="http://www.w3.org/2000/svg">
<g clip-path="url(#clip0_317_355)">
<path d="M20.5457 10.7128C18.4863 6.90557 14.8746 4.60168 10.8779 4.60168C6.88127 4.60168 3.26349 6.90557 1.22238 10.7128L1.05127 11L1.21016 11.2934C3.2696 15.1006 6.88127 17.4045 10.8779 17.4045C14.8746 17.4045 18.4924 15.1311 20.5457 11.2934L20.7046 11L20.5457 10.7128ZM10.8779 16.1517C7.43738 16.1517 4.27794 14.2328 2.4446 11C4.27794 7.76724 7.43738 5.84835 10.8779 5.84835C14.3185 5.84835 17.4413 7.77335 19.3052 11C17.4413 14.2328 14.3124 16.1517 10.8779 16.1517Z" fill="#393E4D"/>
<path d="M11.055 15.2106C13.3703 15.2106 15.2472 13.3337 15.2472 11.0184C15.2472 8.70309 13.3703 6.82617 11.055 6.82617C8.73972 6.82617 6.86279 8.70309 6.86279 11.0184C6.86279 13.3337 8.73972 15.2106 11.055 15.2106Z" fill="#393E4D"/>
</g>
<defs>
<clipPath id="clip0_317_355">
<rect width="22" height="22" fill="white"/>
</clipPath>
</defs>
</svg>
