<svg width="22" height="22" viewBox="0 0 22 22" fill="none" xmlns="http://www.w3.org/2000/svg">
<g clip-path="url(#clip0_317_350)">
<path d="M11.2262 6.82617C10.7316 6.82675 10.2411 6.91574 9.77783 7.08895L15.1556 12.4667C15.3311 11.9977 15.4201 11.5008 15.4184 11.0001C15.4135 9.89139 14.9697 8.82979 14.1841 8.04756C13.3984 7.26532 12.3348 6.82616 11.2262 6.82617Z" fill="#393E4D"/>
<path d="M20.955 10.7128C18.8955 6.90557 15.2838 4.60168 11.2872 4.60168C10.199 4.60424 9.11814 4.77957 8.08496 5.12113L9.06885 6.11113C9.79354 5.92384 10.5387 5.82736 11.2872 5.82391C14.7277 5.82391 17.8566 7.74279 19.7205 10.9756C19.0368 12.1749 18.1304 13.2328 17.05 14.0922L17.9177 14.96C19.1681 13.9513 20.2066 12.7051 20.9733 11.2934L21.1322 11L20.955 10.7128Z" fill="#393E4D"/>
<path d="M2.97626 3.53226L5.70181 6.25781C3.97904 7.36705 2.57103 8.90134 1.61348 10.7128L1.45459 11L1.61348 11.2934C3.67292 15.1006 7.28459 17.4045 11.2813 17.4045C12.8412 17.4042 14.3809 17.0511 15.7851 16.3717L18.8407 19.4273L19.9101 18.5106L4.02126 2.6217L2.97626 3.53226ZM8.04848 8.60448C7.47675 9.41078 7.20877 10.3934 7.29199 11.3783C7.37522 12.3632 7.80428 13.2869 8.50321 13.9859C9.20214 14.6848 10.1258 15.1138 11.1108 15.1971C12.0957 15.2803 13.0783 15.0123 13.8846 14.4406L14.8624 15.4184C13.7305 15.9022 12.5122 16.1517 11.2813 16.1517C7.8407 16.1517 4.71181 14.2328 2.84792 11C3.74241 9.41617 5.03064 8.09005 6.58792 7.15004L8.04848 8.60448Z" fill="#393E4D"/>
</g>
<defs>
<clipPath id="clip0_317_350">
<rect width="22" height="22" fill="white"/>
</clipPath>
</defs>
</svg>
