<svg width="22" height="19" viewBox="0 0 22 19" fill="none" xmlns="http://www.w3.org/2000/svg">
<path d="M13.005 1H8.99505C5.21513 1 3.32518 1 2.1502 2.24525C1.34022 3.10162 1.08923 4.31819 1.01023 6.30081C0.995231 6.69394 0.987231 6.89156 1.05623 7.02225C1.12623 7.15294 1.40122 7.31762 1.95321 7.64487C2.26414 7.82905 2.52313 8.09811 2.70343 8.42425C2.88373 8.75038 2.9788 9.12176 2.9788 9.5C2.9788 9.87824 2.88373 10.2496 2.70343 10.5758C2.52313 10.9019 2.26414 11.1709 1.95321 11.3551C1.40122 11.6834 1.12523 11.8471 1.05623 11.9777C0.987231 12.1084 0.995231 12.305 1.01123 12.6981C1.08923 14.6818 1.34122 15.8984 2.1502 16.7547C3.32418 18 5.21413 18 8.99505 18H13.005C16.7849 18 18.6748 18 19.8498 16.7547C20.6598 15.8984 20.9108 14.6818 20.9898 12.6992C21.0048 12.3061 21.0128 12.1084 20.9438 11.9777C20.8738 11.8471 20.5988 11.6834 20.0468 11.3551C19.7359 11.1709 19.4769 10.9019 19.2966 10.5758C19.1163 10.2496 19.0212 9.87824 19.0212 9.5C19.0212 9.12176 19.1163 8.75038 19.2966 8.42425C19.4769 8.09811 19.7359 7.82905 20.0468 7.64487C20.5988 7.31762 20.8748 7.15294 20.9438 7.02225C21.0128 6.89156 21.0048 6.695 20.9888 6.30081C20.9108 4.31819 20.6588 3.10269 19.8498 2.24525C18.6758 1 16.7859 1 13.005 1Z" stroke="#393E4D" stroke-width="2"/>
<path d="M8.00018 12.6875L14 6.3125" stroke="#393E4D" stroke-width="2" stroke-linecap="round"/>
<mask id="path-3-inside-1_871_916" fill="white">
<path d="M14.5 12.1562C14.5 12.438 14.3946 12.7083 14.2071 12.9076C14.0195 13.1068 13.7652 13.2188 13.5 13.2188C13.2348 13.2188 12.9804 13.1068 12.7929 12.9076C12.6054 12.7083 12.5 12.438 12.5 12.1562C12.5 11.8745 12.6054 11.6042 12.7929 11.4049C12.9804 11.2057 13.2348 11.0938 13.5 11.0938C13.7652 11.0938 14.0195 11.2057 14.2071 11.4049C14.3946 11.6042 14.5 11.8745 14.5 12.1562ZM9.50008 6.84375C9.50008 7.12554 9.39472 7.39579 9.20719 7.59505C9.01966 7.79431 8.76531 7.90625 8.5001 7.90625C8.23489 7.90625 7.98054 7.79431 7.79301 7.59505C7.60548 7.39579 7.50012 7.12554 7.50012 6.84375C7.50012 6.56196 7.60548 6.29171 7.79301 6.09245C7.98054 5.89319 8.23489 5.78125 8.5001 5.78125C8.76531 5.78125 9.01966 5.89319 9.20719 6.09245C9.39472 6.29171 9.50008 6.56196 9.50008 6.84375Z"/>
</mask>
<path d="M14.5 12.1562C14.5 12.438 14.3946 12.7083 14.2071 12.9076C14.0195 13.1068 13.7652 13.2188 13.5 13.2188C13.2348 13.2188 12.9804 13.1068 12.7929 12.9076C12.6054 12.7083 12.5 12.438 12.5 12.1562C12.5 11.8745 12.6054 11.6042 12.7929 11.4049C12.9804 11.2057 13.2348 11.0938 13.5 11.0938C13.7652 11.0938 14.0195 11.2057 14.2071 11.4049C14.3946 11.6042 14.5 11.8745 14.5 12.1562ZM9.50008 6.84375C9.50008 7.12554 9.39472 7.39579 9.20719 7.59505C9.01966 7.79431 8.76531 7.90625 8.5001 7.90625C8.23489 7.90625 7.98054 7.79431 7.79301 7.59505C7.60548 7.39579 7.50012 7.12554 7.50012 6.84375C7.50012 6.56196 7.60548 6.29171 7.79301 6.09245C7.98054 5.89319 8.23489 5.78125 8.5001 5.78125C8.76531 5.78125 9.01966 5.89319 9.20719 6.09245C9.39472 6.29171 9.50008 6.56196 9.50008 6.84375Z" fill="#393E4D"/>
<path d="M12.5 12.1562C12.5 11.9454 12.5777 11.7207 12.7507 11.5368L15.6635 14.2783C16.2116 13.6959 16.5 12.9307 16.5 12.1562H12.5ZM12.7507 11.5368C12.9275 11.3489 13.1943 11.2188 13.5 11.2188V15.2188C14.3361 15.2188 15.1115 14.8647 15.6635 14.2783L12.7507 11.5368ZM13.5 11.2188C13.8057 11.2188 14.0724 11.3489 14.2493 11.5368L11.3365 14.2783C11.8884 14.8647 12.6639 15.2188 13.5 15.2188V11.2188ZM14.2493 11.5368C14.4223 11.7207 14.5 11.9454 14.5 12.1562H10.5C10.5 12.9307 10.7884 13.6959 11.3365 14.2783L14.2493 11.5368ZM14.5 12.1562C14.5 12.3671 14.4223 12.5918 14.2493 12.7757L11.3365 10.0342C10.7884 10.6166 10.5 11.3818 10.5 12.1562H14.5ZM14.2493 12.7757C14.0724 12.9636 13.8057 13.0938 13.5 13.0938V9.09375C12.6639 9.09375 11.8884 9.44779 11.3365 10.0342L14.2493 12.7757ZM13.5 13.0938C13.1943 13.0938 12.9275 12.9636 12.7507 12.7757L15.6635 10.0342C15.1115 9.44779 14.3361 9.09375 13.5 9.09375V13.0938ZM12.7507 12.7757C12.5777 12.5918 12.5 12.3671 12.5 12.1562H16.5C16.5 11.3818 16.2116 10.6166 15.6635 10.0342L12.7507 12.7757ZM7.50008 6.84375C7.50008 6.63293 7.57777 6.40816 7.75077 6.22434L10.6636 8.96576C11.2117 8.38342 11.5001 7.61816 11.5001 6.84375H7.50008ZM7.75077 6.22434C7.92765 6.0364 8.19439 5.90625 8.5001 5.90625V9.90625C9.33623 9.90625 10.1117 9.55221 10.6636 8.96576L7.75077 6.22434ZM8.5001 5.90625C8.80581 5.90625 9.07255 6.0364 9.24942 6.22434L6.33659 8.96576C6.88853 9.55221 7.66397 9.90625 8.5001 9.90625V5.90625ZM9.24942 6.22434C9.42243 6.40816 9.50012 6.63293 9.50012 6.84375H5.50012C5.50012 7.61816 5.78852 8.38342 6.33659 8.96576L9.24942 6.22434ZM9.50012 6.84375C9.50012 7.05457 9.42243 7.27934 9.24942 7.46316L6.33659 4.72174C5.78852 5.30408 5.50012 6.06934 5.50012 6.84375H9.50012ZM9.24942 7.46316C9.07255 7.6511 8.80581 7.78125 8.5001 7.78125V3.78125C7.66397 3.78125 6.88853 4.13529 6.33659 4.72174L9.24942 7.46316ZM8.5001 7.78125C8.19439 7.78125 7.92765 7.6511 7.75077 7.46316L10.6636 4.72174C10.1117 4.13529 9.33623 3.78125 8.5001 3.78125V7.78125ZM7.75077 7.46316C7.57777 7.27934 7.50008 7.05457 7.50008 6.84375H11.5001C11.5001 6.06934 11.2117 5.30408 10.6636 4.72174L7.75077 7.46316Z" fill="#393E4D" mask="url(#path-3-inside-1_871_916)"/>
</svg>
