<svg width="287" height="287" viewBox="0 0 287 287" fill="none" xmlns="http://www.w3.org/2000/svg">
<path d="M0 12.3C0 9.03784 1.29598 5.90928 3.60284 3.60259C5.9097 1.29589 9.03847 0 12.3009 0H21.4527C37.0338 0 46.3824 10.4796 51.7128 20.2212C55.2719 26.7156 57.8468 34.2432 59.8642 41.0656C60.4098 41.0225 60.957 41.0006 61.5043 41H266.486C280.099 41 289.939 54.0216 286.2 67.1252L256.219 172.233C253.531 181.66 247.844 189.955 240.019 195.862C232.194 201.769 222.658 204.965 212.854 204.967H115.3C105.418 204.968 95.8098 201.723 87.9516 195.732C80.0933 189.741 74.4202 181.335 71.8042 171.806L59.3393 126.346L38.6739 56.6784L38.6575 56.5472C36.0989 47.2484 33.7044 38.54 30.1289 32.0456C26.7011 25.7316 23.9457 24.6 21.4691 24.6H12.3009C9.03847 24.6 5.9097 23.3041 3.60284 20.9974C1.29598 18.6907 0 15.5622 0 12.3ZM83.203 120.376L95.5203 165.296C97.9805 174.184 106.066 180.367 115.3 180.367H212.854C217.31 180.367 221.645 178.915 225.202 176.231C228.76 173.547 231.345 169.777 232.568 165.492L261.057 65.6H66.9987L82.9734 119.507L83.203 120.376ZM139.41 254.2C139.41 262.899 135.954 271.242 129.802 277.393C123.651 283.544 115.307 287 106.607 287C97.9077 287 89.5643 283.544 83.4127 277.393C77.2611 271.242 73.8052 262.899 73.8052 254.2C73.8052 245.501 77.2611 237.158 83.4127 231.007C89.5643 224.856 97.9077 221.4 106.607 221.4C115.307 221.4 123.651 224.856 129.802 231.007C135.954 237.158 139.41 245.501 139.41 254.2ZM114.808 254.2C114.808 252.025 113.944 249.94 112.406 248.402C110.868 246.864 108.782 246 106.607 246C104.433 246 102.347 246.864 100.809 248.402C99.2709 249.94 98.4069 252.025 98.4069 254.2C98.4069 256.375 99.2709 258.46 100.809 259.998C102.347 261.536 104.433 262.4 106.607 262.4C108.782 262.4 110.868 261.536 112.406 259.998C113.944 258.46 114.808 256.375 114.808 254.2ZM254.218 254.2C254.218 262.899 250.762 271.242 244.61 277.393C238.459 283.544 230.115 287 221.415 287C212.716 287 204.372 283.544 198.221 277.393C192.069 271.242 188.613 262.899 188.613 254.2C188.613 245.501 192.069 237.158 198.221 231.007C204.372 224.856 212.716 221.4 221.415 221.4C230.115 221.4 238.459 224.856 244.61 231.007C250.762 237.158 254.218 245.501 254.218 254.2ZM229.616 254.2C229.616 252.025 228.752 249.94 227.214 248.402C225.676 246.864 223.59 246 221.415 246C219.241 246 217.155 246.864 215.617 248.402C214.079 249.94 213.215 252.025 213.215 254.2C213.215 256.375 214.079 258.46 215.617 259.998C217.155 261.536 219.241 262.4 221.415 262.4C223.59 262.4 225.676 261.536 227.214 259.998C228.752 258.46 229.616 256.375 229.616 254.2Z" fill="#DB5743"/>
<path fill-rule="evenodd" clip-rule="evenodd" d="M160.799 156.98C151.893 156.98 143.614 159.932 136.789 164.991C135.125 166.224 132.776 165.875 131.543 164.211C130.31 162.547 130.659 160.199 132.323 158.965C140.368 153.002 150.197 149.48 160.799 149.48C171.4 149.48 181.229 153.002 189.274 158.965C190.938 160.199 191.287 162.547 190.054 164.211C188.821 165.875 186.472 166.224 184.808 164.991C177.983 159.932 169.704 156.98 160.799 156.98Z" fill="#DB5743"/>
<path d="M187.041 118.24C191.873 118.24 195.789 112.365 195.789 105.119C195.789 97.8719 191.873 91.9973 187.041 91.9973C182.21 91.9973 178.294 97.8719 178.294 105.119C178.294 112.365 182.21 118.24 187.041 118.24Z" fill="#DB5743"/>
<path d="M134.556 118.24C139.387 118.24 143.303 112.365 143.303 105.119C143.303 97.8719 139.387 91.9973 134.556 91.9973C129.725 91.9973 125.808 97.8719 125.808 105.119C125.808 112.365 129.725 118.24 134.556 118.24Z" fill="#DB5743"/>
</svg>
